# Blender v2.81 (sub 16) OBJ File: 'spaceship.blend'
# www.blender.org
mtllib spaceship_cargo.mtl
o cargo_Cylinder.012
v 1.776449 -3.539167 13.727262
v 1.776449 -3.775762 13.724451
v 2.257212 -3.539167 13.727262
v 2.257212 -3.775762 13.724451
v 1.192045 -3.287719 11.715897
v 1.192045 -4.169267 12.295218
v 2.229721 -3.541879 11.637691
v 2.770532 -4.324291 11.365824
v 4.165575 -4.880719 10.496668
v 1.105050 -3.081625 8.581512
v 2.637402 -3.403286 8.737307
v 2.792475 -4.284154 8.956865
v 2.861861 -2.833710 5.703645
v 3.925246 -3.476521 7.561253
v 4.335480 -4.362465 8.664879
v 4.291174 -3.236444 5.698858
v 5.046621 -4.271494 5.686556
v 0.929673 -5.724795 11.996691
v 0.929673 -6.680098 11.103788
v 3.005327 -5.585845 10.844540
v 2.338771 -6.582380 10.764025
v 4.165575 -5.226688 10.492556
v 0.929673 -6.982563 8.754759
v 3.387887 -5.681827 8.865355
v 2.934444 -6.632702 8.563036
v 0.929673 -7.020078 5.653887
v 2.861861 -6.852952 5.655874
v 4.223553 -5.675687 8.348690
v 3.870568 -6.397793 7.401768
v 4.889316 -5.813326 5.605088
v 4.739472 -6.542129 5.575378
v 5.784925 -6.322425 4.977062
v 5.784925 -6.499603 4.974956
v 0.866535 -4.630247 0.658933
v 2.607906 -4.107008 -0.486851
v 4.913033 -3.054718 2.549562
v 5.631525 -4.246197 3.558148
v 5.874242 -3.374106 1.478269
v 5.980160 -4.227775 2.008154
v 4.794049 -2.909840 -0.498110
v 5.958651 -3.216048 -0.501749
v 6.159384 -4.197804 -0.513418
v 3.793406 -3.405989 -2.200817
v 3.682765 -4.173388 -2.567675
v 4.836081 -3.167209 -3.379509
v 4.820838 -4.318294 -4.157913
v 5.988642 -3.149684 -3.601385
v 5.995975 -4.220430 -3.551767
v 5.508165 -3.252728 -5.422025
v 5.317279 -4.041286 -5.364098
v 5.914228 -3.252728 -5.422025
v 5.914228 -3.777851 -5.428267
v 0.929673 -7.063369 2.552948
v 2.861861 -7.038771 2.553240
v 1.038074 -5.244236 -0.319720
v 0.929673 -7.064987 -0.547496
v 2.947146 -5.581467 -0.833414
v 3.055093 -6.712809 -0.710918
v 5.133863 -5.800052 2.930329
v 5.064866 -6.579958 2.381110
v 5.868210 -5.837998 2.533929
v 5.782268 -6.415595 2.312030
v 4.582748 -5.953271 -0.483393
v 4.582748 -6.417696 -0.045996
v 5.927985 -5.502712 -0.256557
v 5.772237 -6.308116 0.948925
v 0.929674 -5.988483 -2.384619
v 0.929674 -6.632527 -2.392274
v 3.097343 -5.680414 -2.364895
v 2.900521 -6.457550 -2.172079
v 4.515854 -5.406797 -2.929831
v 3.839369 -6.305597 -2.104129
v 5.848531 -4.965822 -2.485593
v -1.849292 -3.539166 13.727262
v -1.849292 -3.775762 13.724451
v -2.330055 -3.539166 13.727262
v -2.330055 -3.775762 13.724451
v -1.264888 -3.287719 11.715897
v -1.264889 -4.169266 12.295218
v -2.302564 -3.541878 11.637691
v -2.843375 -4.324290 11.365824
v -4.238418 -4.880718 10.496668
v -1.177893 -3.081625 8.581512
v -2.710244 -3.403286 8.737307
v -2.865318 -4.284154 8.956865
v -2.934704 -2.833710 5.703645
v -3.998088 -3.476520 7.561253
v -4.408324 -4.362464 8.664879
v -4.364018 -3.236444 5.698858
v -5.119464 -4.271494 5.686556
v -1.002516 -5.724795 11.996691
v -1.002516 -6.680098 11.103788
v -3.078170 -5.585845 10.844540
v -2.411614 -6.582380 10.764025
v -4.238418 -5.226688 10.492556
v -1.002516 -6.982563 8.754759
v -3.460730 -5.681827 8.865355
v -3.007288 -6.632701 8.563036
v -1.002516 -7.020078 5.653887
v -2.934704 -6.852952 5.655874
v -4.296396 -5.675686 8.348690
v -3.943410 -6.397792 7.401768
v -4.962160 -5.813325 5.605088
v -4.812315 -6.542129 5.575378
v -5.857768 -6.322424 4.977061
v -5.857768 -6.499603 4.974955
v -0.939377 -4.630247 0.658933
v -2.680748 -4.107008 -0.486851
v -4.985876 -3.054718 2.549561
v -5.704368 -4.246196 3.558147
v -5.947084 -3.374105 1.478268
v -6.053002 -4.227774 2.008154
v -4.866892 -2.909840 -0.498110
v -6.031492 -3.216047 -0.501750
v -6.232225 -4.197803 -0.513418
v -3.866248 -3.405988 -2.200817
v -3.755608 -4.173388 -2.567676
v -4.908923 -3.167208 -3.379510
v -4.893681 -4.318294 -4.157913
v -6.061483 -3.149683 -3.601385
v -6.068817 -4.220429 -3.551767
v -5.581008 -3.252728 -5.422026
v -5.390121 -4.041285 -5.364098
v -5.987071 -3.252728 -5.422026
v -5.987071 -3.777851 -5.428268
v -1.002516 -7.063369 2.552948
v -2.934704 -7.038771 2.553240
v -1.110916 -5.244235 -0.319720
v -1.002516 -7.064987 -0.547496
v -3.019989 -5.581467 -0.833414
v -3.127935 -6.712809 -0.710919
v -5.206706 -5.800052 2.930328
v -5.137709 -6.579957 2.381110
v -5.941051 -5.837997 2.533929
v -5.855110 -6.415594 2.312030
v -4.655590 -5.953271 -0.483394
v -4.655590 -6.417696 -0.045997
v -6.000828 -5.502712 -0.256558
v -5.845078 -6.308115 0.948925
v -1.002516 -5.988483 -2.384619
v -1.002516 -6.632527 -2.392274
v -3.170185 -5.680413 -2.364896
v -2.973363 -6.457550 -2.172079
v -4.588696 -5.406796 -2.929831
v -3.912211 -6.305596 -2.104129
v -5.921372 -4.965820 -2.485593
vt 0.924374 0.900648
vt 0.917806 0.894470
vt 0.930359 0.881124
vt 0.936927 0.887302
vt 0.916738 0.903423
vt 0.836344 0.903423
vt 0.861397 0.871985
vt 0.876610 0.803600
vt 0.914459 0.802103
vt 0.938868 0.878516
vt 0.956005 0.872837
vt 0.954499 0.792954
vt 0.765579 0.251234
vt 0.642363 0.209158
vt 0.663843 0.159588
vt 0.738997 0.194165
vt 0.844219 0.718341
vt 0.872621 0.698125
vt 0.927527 0.677254
vt 0.813750 0.181502
vt 0.825823 0.219642
vt 0.701387 0.104918
vt 0.876218 0.309509
vt 0.813501 0.296964
vt 0.894850 0.411998
vt 0.841649 0.435926
vt 0.817109 0.384724
vt 0.828522 0.341474
vt 0.626991 0.441930
vt 0.624938 0.369468
vt 0.738031 0.363269
vt 0.746283 0.441138
vt 0.624469 0.267450
vt 0.615975 0.300045
vt 0.581508 0.280363
vt 0.582999 0.276395
vt 0.693720 0.324708
vt 0.736482 0.300236
vt 0.759581 0.330002
vt 0.807108 0.305237
vt 0.531572 0.127917
vt 0.559855 0.190722
vt 0.501155 0.189194
vt 0.479912 0.157418
vt 0.405723 0.190167
vt 0.405269 0.150649
vt 0.409555 0.101187
vt 0.804233 0.883301
vt 0.819470 0.870379
vt 0.841913 0.881264
vt 0.814225 0.895083
vt 0.881994 0.004051
vt 0.963863 0.004051
vt 0.960702 0.034834
vt 0.911661 0.047811
vt 0.785320 0.805391
vt 0.755811 0.833539
vt 0.719555 0.859612
vt 0.793610 0.894517
vt 0.839822 0.855958
vt 0.835761 0.805391
vt 0.282853 0.197622
vt 0.278582 0.152769
vt 0.287666 0.104037
vt 0.197974 0.449944
vt 0.251965 0.466667
vt 0.192869 0.520226
vt 0.162079 0.503821
vt 0.399263 0.441789
vt 0.393800 0.360502
vt 0.513859 0.373443
vt 0.513579 0.442813
vt 0.418126 0.240245
vt 0.463415 0.266279
vt 0.421528 0.303570
vt 0.400414 0.291470
vt 0.510367 0.270279
vt 0.520344 0.249605
vt 0.510541 0.297004
vt 0.305125 0.346914
vt 0.335703 0.362693
vt 0.327644 0.441166
vt 0.301252 0.438705
vt 0.146557 0.659928
vt 0.177562 0.599379
vt 0.224221 0.578614
vt 0.235916 0.664341
vt 0.340761 0.325063
vt 0.304053 0.280677
vt 0.330090 0.225827
vt 0.550225 0.242678
vt 0.874755 0.242386
vt 0.948263 0.242386
vt 0.948263 0.292133
vt 0.874755 0.292133
vt 0.746044 0.514917
vt 0.626951 0.514372
vt 0.842737 0.519609
vt 0.301708 0.518099
vt 0.327331 0.515479
vt 0.235916 0.743003
vt 0.146557 0.747416
vt 0.939424 0.358341
vt 0.126307 0.584597
vt 0.100226 0.666719
vt 0.244540 0.241095
vt 0.399083 0.514214
vt 0.864773 0.182127
vt 0.958245 0.182127
vt 0.513378 0.513256
vt 0.251447 0.599367
vt 0.251447 0.505895
vt 0.291578 0.505895
vt 0.291578 0.599367
vt 0.035737 0.722574
vt 0.023184 0.709229
vt 0.029752 0.703051
vt 0.042305 0.716396
vt 0.043373 0.725350
vt 0.098713 0.693912
vt 0.123767 0.725350
vt 0.021243 0.700442
vt 0.045651 0.624029
vt 0.083501 0.625527
vt 0.004105 0.694764
vt 0.005611 0.614881
vt 0.765656 0.705848
vt 0.738695 0.763072
vt 0.663035 0.797402
vt 0.641751 0.747573
vt 0.087489 0.520052
vt 0.115891 0.540268
vt 0.032583 0.499181
vt 0.813799 0.776182
vt 0.826126 0.737886
vt 0.700450 0.852535
vt 0.877357 0.647549
vt 0.814027 0.659986
vt 0.896538 0.543966
vt 0.829298 0.615147
vt 0.817832 0.571483
vt 0.738140 0.593162
vt 0.624776 0.586874
vt 0.624053 0.689061
vt 0.582531 0.679941
vt 0.581052 0.675963
vt 0.615643 0.656366
vt 0.693646 0.631833
vt 0.736550 0.656507
vt 0.759804 0.626621
vt 0.807610 0.651635
vt 0.530350 0.828276
vt 0.478880 0.798480
vt 0.500283 0.766838
vt 0.559000 0.765613
vt 0.404301 0.804820
vt 0.404964 0.765377
vt 0.408293 0.854213
vt 0.926953 0.135203
vt 0.939524 0.144182
vt 0.928052 0.172922
vt 0.915340 0.151461
vt 0.896313 0.052784
vt 0.949044 0.056597
vt 0.962327 0.105556
vt 0.937248 0.123685
vt 0.847741 0.122825
vt 0.873341 0.091081
vt 0.902660 0.172940
vt 0.851930 0.173092
vt 0.277944 0.801989
vt 0.282467 0.757278
vt 0.286718 0.850652
vt 0.197974 0.957400
vt 0.162079 0.903523
vt 0.192869 0.887118
vt 0.251965 0.940677
vt 0.513595 0.582643
vt 0.393646 0.595354
vt 0.417579 0.715440
vt 0.400099 0.664246
vt 0.421206 0.652249
vt 0.462898 0.689630
vt 0.509840 0.685811
vt 0.519744 0.706526
vt 0.510104 0.659083
vt 0.305433 0.608736
vt 0.335763 0.593116
vt 0.224221 0.828730
vt 0.177562 0.807965
vt 0.304034 0.674620
vt 0.340752 0.630557
vt 0.329705 0.729409
vt 0.549594 0.713581
vt 0.941437 0.598376
vt 0.126307 0.822747
vt 0.100226 0.740625
vt 0.244540 0.713744
vn -0.3888 0.6386 0.6641
vn -0.4728 -0.4632 0.7496
vn 0.5925 -0.3253 0.7369
vn 0.5059 0.6882 0.5200
vn -0.0674 0.9081 0.4133
vn -0.1819 -0.2240 0.9574
vn 0.8047 0.1244 0.5804
vn 0.6011 0.7967 0.0622
vn 0.8338 0.4451 0.3266
vn 0.9476 0.2306 0.2211
vn 0.6375 0.7412 0.2101
vn 0.5159 0.7946 0.3198
vn 0.5923 0.7337 0.3328
vn 0.5043 0.8069 0.3075
vn 0.2162 0.9740 0.0671
vn 0.2478 0.9506 0.1870
vn 0.7830 0.3455 0.5173
vn 0.2035 -0.4214 0.8837
vn 0.1443 -0.8569 0.4948
vn 0.4614 -0.7734 0.4347
vn 0.5477 -0.5304 0.6471
vn 0.0454 -0.9986 0.0260
vn 0.1520 -0.9866 0.0594
vn 0.4274 -0.8780 0.2155
vn 0.0692 -0.9951 0.0699
vn 0.9121 -0.1088 0.3951
vn 0.4737 -0.8172 0.3283
vn 0.6816 -0.6385 0.3574
vn 0.8253 0.3358 0.4540
vn 0.5465 -0.7896 0.2788
vn 0.8222 -0.4815 0.3034
vn 0.5536 -0.7786 0.2955
vn 0.6964 -0.5397 0.4730
vn 0.6873 0.6887 0.2308
vn 0.9333 0.2032 0.2960
vn 0.9575 0.1572 0.2416
vn 0.7480 0.6491 0.1380
vn 0.9999 -0.0149 0.0004
vn 0.7312 0.6819 0.0202
vn 0.2150 0.9765 0.0124
vn 0.5472 0.5636 -0.6188
vn 0.6000 -0.4143 -0.6843
vn -0.4610 -0.5695 -0.6805
vn -0.4224 0.6086 -0.6717
vn -0.4566 0.8285 -0.3242
vn -0.5023 -0.4956 -0.7085
vn 0.8565 -0.4536 -0.2463
vn 0.7013 0.7111 -0.0499
vn -0.8181 0.2555 -0.5152
vn -0.7316 0.3842 -0.5632
vn 0.0540 -0.9914 -0.1192
vn 0.1663 -0.9771 -0.1329
vn 0.1330 -0.9910 -0.0129
vn 0.0350 -0.9994 0.0008
vn 0.8269 -0.5268 -0.1967
vn 0.6927 -0.7015 -0.1673
vn 0.3605 -0.8946 -0.2640
vn 0.5751 -0.7514 -0.3235
vn 0.7038 -0.7095 -0.0335
vn 0.9867 0.0176 0.1614
vn 0.1726 -0.9843 -0.0373
vn -0.4531 0.0477 -0.8902
vn 0.1067 -0.7437 -0.6599
vn 0.0612 -0.6475 -0.7595
vn 0.0192 0.5501 -0.8349
vn -0.1865 0.8075 -0.5596
vn -0.5740 0.6463 -0.5029
vn 0.3426 -0.7918 -0.5056
vn 0.2206 -0.7961 -0.5634
vn 0.7227 -0.6391 -0.2632
vn 0.8749 0.3707 0.3116
vn -0.2035 -0.4214 0.8837
vn -0.1443 -0.8569 0.4948
vn -0.0692 -0.9951 0.0699
vn -0.0454 -0.9986 0.0260
vn -0.0192 0.5501 -0.8349
vn -0.0612 -0.6475 -0.7595
vn 0.1865 0.8075 -0.5596
vn -0.6867 0.3060 -0.6593
vn -0.3929 0.4223 -0.8169
vn -0.0540 -0.9914 -0.1192
vn 0.1819 -0.2240 0.9574
vn -0.0350 -0.9994 0.0008
vn 0.0674 0.9081 0.4133
vn 0.3888 0.6386 0.6641
vn -0.5059 0.6882 0.5200
vn -0.5925 -0.3253 0.7369
vn 0.4728 -0.4632 0.7496
vn -0.6011 0.7967 0.0622
vn -0.8047 0.1244 0.5804
vn -0.8338 0.4451 0.3266
vn -0.5159 0.7946 0.3198
vn -0.6375 0.7412 0.2101
vn -0.9476 0.2306 0.2211
vn -0.5043 0.8069 0.3075
vn -0.5923 0.7337 0.3328
vn -0.2162 0.9740 0.0671
vn -0.2478 0.9506 0.1870
vn -0.7830 0.3455 0.5173
vn -0.5477 -0.5304 0.6471
vn -0.4614 -0.7734 0.4347
vn -0.4274 -0.8780 0.2155
vn -0.1520 -0.9866 0.0594
vn -0.9121 -0.1088 0.3951
vn -0.8253 0.3358 0.4540
vn -0.6816 -0.6385 0.3574
vn -0.4737 -0.8172 0.3283
vn -0.5465 -0.7896 0.2788
vn -0.8222 -0.4815 0.3034
vn -0.5536 -0.7786 0.2955
vn -0.6964 -0.5397 0.4730
vn -0.6873 0.6887 0.2308
vn -0.7480 0.6491 0.1380
vn -0.9575 0.1572 0.2416
vn -0.9333 0.2032 0.2960
vn -0.7312 0.6819 0.0202
vn -0.9999 -0.0149 0.0004
vn -0.2150 0.9765 0.0124
vn -0.5472 0.5636 -0.6188
vn 0.4224 0.6086 -0.6717
vn 0.4610 -0.5695 -0.6805
vn -0.6000 -0.4143 -0.6843
vn 0.4566 0.8285 -0.3242
vn 0.5023 -0.4956 -0.7085
vn -0.8565 -0.4536 -0.2463
vn -0.7013 0.7111 -0.0499
vn 0.7316 0.3842 -0.5632
vn 0.8181 0.2555 -0.5152
vn -0.1330 -0.9910 -0.0129
vn -0.1663 -0.9771 -0.1329
vn -0.8269 -0.5268 -0.1967
vn -0.5751 -0.7514 -0.3235
vn -0.3605 -0.8946 -0.2640
vn -0.6927 -0.7015 -0.1673
vn -0.7038 -0.7095 -0.0335
vn -0.9867 0.0176 0.1614
vn -0.1726 -0.9843 -0.0373
vn 0.4531 0.0477 -0.8902
vn -0.1067 -0.7437 -0.6599
vn 0.5740 0.6463 -0.5029
vn -0.2206 -0.7961 -0.5634
vn -0.3426 -0.7918 -0.5056
vn -0.7227 -0.6391 -0.2632
vn -0.8749 0.3707 0.3116
vn 0.6867 0.3060 -0.6593
vn 0.3929 0.4223 -0.8169
usemtl Warp/cargo
s 1
f 1/1/1 2/2/2 4/3/3 3/4/4
f 1/5/1 5/6/5 6/7/6 2/2/2
f 4/3/3 8/8/7 7/9/8 3/10/4
f 1/11/1 3/10/4 7/9/8 5/12/5
f 6/7/6 8/8/7 4/3/3 2/2/2
f 15/13/9 17/14/10 16/15/11 14/16/12
f 8/8/7 12/17/13 11/18/14 7/9/8
f 5/12/5 7/9/8 11/18/14 10/19/15
f 11/20/14 12/21/13 15/13/9 14/16/12
f 11/20/14 14/16/12 16/15/11 13/22/16
f 8/23/7 9/24/17 15/13/9 12/21/13
f 18/25/18 19/26/19 21/27/20 20/28/21
f 26/29/22 27/30/23 25/31/24 23/32/25
f 30/33/26 31/34/27 33/35/28 32/36/29
f 29/37/30 31/34/27 30/33/26 28/38/31
f 21/27/20 25/31/24 24/39/32 20/28/21
f 23/32/25 25/31/24 21/27/20 19/26/19
f 24/39/32 25/31/24 29/37/30 28/38/31
f 27/30/23 31/34/27 29/37/30 25/31/24
f 24/39/32 28/38/31 22/40/33 20/28/21
f 36/41/34 37/42/35 39/43/36 38/44/37
f 39/43/36 42/45/38 41/46/39 38/44/37
f 36/41/34 38/44/37 41/46/39 40/47/40
f 51/48/41 52/49/42 50/50/43 49/51/44
f 45/52/45 49/53/44 50/54/43 46/55/46
f 48/56/47 52/49/42 51/48/41 47/57/48
f 45/58/45 47/57/48 51/48/41 49/59/44
f 50/60/43 52/49/42 48/56/47 46/61/46
f 42/45/38 48/62/47 47/63/48 41/46/39
f 40/47/40 41/46/39 47/63/48 45/64/45
f 45/65/45 46/66/46 44/67/49 43/68/50
f 56/69/51 58/70/52 54/71/53 53/72/54
f 65/73/55 66/74/56 64/75/57 63/76/58
f 62/77/59 66/74/56 65/73/55 61/78/60
f 64/75/57 66/74/56 62/77/59 60/79/61
f 69/80/62 70/81/63 68/82/64 67/83/65
f 55/84/66 57/85/67 69/86/62 67/87/65
f 68/82/64 70/81/63 58/70/52 56/69/51
f 64/75/57 72/88/68 71/89/69 63/76/58
f 71/89/69 73/90/70 65/73/55 63/76/58
f 58/70/52 64/75/57 60/79/61 54/71/53
f 71/89/69 72/88/68 70/81/63 69/80/62
f 70/81/63 72/88/68 64/75/57 58/70/52
f 17/14/10 37/42/35 36/41/34 16/15/11
f 53/72/54 54/71/53 27/30/23 26/29/22
f 33/35/28 62/77/59 61/78/60 32/36/29
f 30/33/26 32/36/29 61/78/60 59/91/71
f 60/79/61 62/77/59 33/35/28 31/34/27
f 54/71/53 60/79/61 31/34/27 27/30/23
f 18/92/18 91/93/72 92/94/73 19/95/19
f 23/32/25 96/96/74 99/97/75 26/29/22
f 19/26/19 92/98/73 96/96/74 23/32/25
f 140/99/76 67/83/65 68/82/64 141/100/77
f 67/87/65 140/101/76 128/102/78 55/84/66
f 6/103/6 18/25/18 20/28/21 8/23/7
f 28/38/31 30/33/26 17/14/10 15/13/9
f 8/23/7 20/28/21 22/40/33 9/24/17
f 22/40/33 28/38/31 15/13/9 9/24/17
f 35/104/79 57/85/67 55/84/66 34/105/80
f 37/42/35 59/91/71 61/78/60 39/43/36
f 61/78/60 65/73/55 42/45/38 39/43/36
f 48/62/47 73/90/70 71/89/69 46/106/46
f 46/106/46 71/89/69 69/80/62
f 35/104/79 44/67/49 69/86/62 57/85/67
f 65/73/55 73/90/70 48/62/47 42/45/38
f 56/69/51 129/107/81 141/100/77 68/82/64
f 30/33/26 59/91/71 37/42/35 17/14/10
f 6/108/6 79/109/82 91/93/72 18/92/18
f 53/72/54 126/110/83 129/107/81 56/69/51
f 5/111/5 78/112/84 79/113/82 6/114/6
f 74/115/85 76/116/86 77/117/87 75/118/88
f 74/119/85 75/118/88 79/120/82 78/121/84
f 77/117/87 76/122/86 80/123/89 81/124/90
f 74/125/85 78/126/84 80/123/89 76/122/86
f 79/120/82 75/118/88 77/117/87 81/124/90
f 88/127/91 87/128/92 89/129/93 90/130/94
f 81/124/90 80/123/89 84/131/95 85/132/96
f 78/126/84 83/133/97 84/131/95 80/123/89
f 84/134/95 87/128/92 88/127/91 85/135/96
f 84/134/95 86/136/98 89/129/93 87/128/92
f 81/137/90 85/135/96 88/127/91 82/138/99
f 91/139/72 93/140/100 94/141/101 92/98/73
f 99/97/75 96/96/74 98/142/102 100/143/103
f 103/144/104 105/145/105 106/146/106 104/147/107
f 102/148/108 101/149/109 103/144/104 104/147/107
f 94/141/101 93/140/100 97/150/110 98/142/102
f 96/96/74 92/98/73 94/141/101 98/142/102
f 97/150/110 101/149/109 102/148/108 98/142/102
f 100/143/103 98/142/102 102/148/108 104/147/107
f 97/150/110 93/140/100 95/151/111 101/149/109
f 109/152/112 111/153/113 112/154/114 110/155/115
f 112/154/114 111/153/113 114/156/116 115/157/117
f 109/152/112 113/158/118 114/156/116 111/153/113
f 124/159/119 122/160/120 123/161/121 125/162/122
f 118/163/123 119/164/124 123/165/121 122/166/120
f 121/167/125 120/168/126 124/159/119 125/162/122
f 118/163/123 122/166/120 124/159/119 120/168/126
f 123/169/121 119/170/124 121/167/125 125/162/122
f 115/157/117 114/156/116 120/171/126 121/172/125
f 113/158/118 118/173/123 120/171/126 114/156/116
f 118/174/123 116/175/127 117/176/128 119/177/124
f 129/107/81 126/110/83 127/178/129 131/179/130
f 138/180/131 136/181/132 137/182/133 139/183/134
f 135/184/135 134/185/136 138/180/131 139/183/134
f 137/182/133 133/186/137 135/184/135 139/183/134
f 142/187/138 140/99/76 141/100/77 143/188/139
f 128/102/78 140/101/76 142/189/138 130/190/140
f 141/100/77 129/107/81 131/179/130 143/188/139
f 137/182/133 136/181/132 144/191/141 145/192/142
f 144/191/141 136/181/132 138/180/131 146/193/143
f 131/179/130 127/178/129 133/186/137 137/182/133
f 144/191/141 142/187/138 143/188/139 145/192/142
f 143/188/139 131/179/130 137/182/133 145/192/142
f 90/130/94 89/129/93 109/152/112 110/155/115
f 126/110/83 99/97/75 100/143/103 127/178/129
f 106/146/106 105/145/105 134/185/136 135/184/135
f 103/144/104 132/194/144 134/185/136 105/145/105
f 133/186/137 104/147/107 106/146/106 135/184/135
f 127/178/129 100/143/103 104/147/107 133/186/137
f 79/195/82 81/137/90 93/140/100 91/139/72
f 101/149/109 88/127/91 90/130/94 103/144/104
f 81/137/90 82/138/99 95/151/111 93/140/100
f 95/151/111 82/138/99 88/127/91 101/149/109
f 108/196/145 107/197/146 128/102/78 130/190/140
f 110/155/115 112/154/114 134/185/136 132/194/144
f 134/185/136 112/154/114 115/157/117 138/180/131
f 121/172/125 119/198/124 144/191/141 146/193/143
f 119/177/124 117/176/128 142/189/138
f 108/196/145 130/190/140 142/189/138 117/176/128
f 138/180/131 115/157/117 121/172/125 146/193/143
f 103/144/104 90/130/94 110/155/115 132/194/144
f 26/29/22 99/97/75 126/110/83 53/72/54
f 44/67/49 46/66/46 69/86/62
f 144/191/141 119/198/124 142/187/138
